mtllib material.mtl
o Default
v 0 0 5.551115123125783e-17
v -1 0 5.551115123125783e-17
v -1 0 -1
v 0 0 -1
v -1 -1 -1
v 0 -1 -1.0797216454250247e-8
v -1 -1 -1.0797216454250247e-8
v 0 -1 -1
v 0 -1 -1.0797216454250247e-8
v 0 0 -1
v 0 0 5.551115123125783e-17
v 0 -1 -1
v 0 -1 -1
v -1 0 -1
v 0 0 -1
v -1 -1 -1
v -1 -1 -1
v -1 0 5.551115123125783e-17
v -1 0 -1
v -1 -1 -1.0797216454250247e-8
v -1 -1 -1.0797216454250247e-8
v 0 0 5.551115123125783e-17
v -1 0 5.551115123125783e-17
v 0 -1 -1.7763568394002505e-15
vt 0.0625 0.9375
vt 0 1
vt 0 0.9375
vt 0.0625 0.9375
vt 0.0625 1
vt 0 1
vt 0.1875 0.9375
vt 0.125 1
vt 0.125 0.9375
vt 0.1875 0.9375
vt 0.1875 1
vt 0.125 1
vt 0.125 0.9375
vt 0.0625 1
vt 0.125 1
vt 0.125 0.9375
vt 0.0625 0.9375
vt 0.0625 1
vt 0.0625 0.9375
vt 0.125 1
vt 0.0625 1
vt 0.0625 0.9375
vt 0.125 0.9375
vt 0.125 1
vt 0.0625 0.9375
vt 0.125 1
vt 0.0625 1
vt 0.0625 0.9375
vt 0.125 0.9375
vt 0.125 1
vt 0.0625 0.9375
vt 0.125 1
vt 0.0625 1
vt 0.0625 0.9375
vt 0.125 0.9375
vt 0.125 1
vn 0 1 0
vn 0 1 0
vn 0 1 0
vn 0 1 0
vn 0 1 0
vn 0 1 0
vn 0 -1 0
vn 0 -1 0
vn 0 -1 0
vn 0 -1 0
vn 0 -1 0
vn 0 -1 0
vn 1 0 0
vn 1 0 0
vn 1 0 0
vn 1 0 0
vn 1 0 0
vn 1 0 0
vn 0 0 -1
vn 0 0 -1
vn 0 0 -1
vn 0 0 -1
vn 0 0 -1
vn 0 0 -1
vn -1 0 0
vn -1 0 0
vn -1 0 0
vn -1 0 0
vn -1 0 0
vn -1 0 0
vn 0 -1.0797216509761398e-8 1
vn 0 -1.0797216509761398e-8 1
vn 0 -1.0797216509761398e-8 1
vn -1.0797214677893407e-8 -1.8318679906315083e-15 1
vn -1.0797214677893407e-8 -1.8318679906315083e-15 1
vn -1.0797214677893407e-8 -1.8318679906315083e-15 1
g Cubo Carne
usemtl material1
f 1/1/1 3/2/2 2/3/3
f 1/4/4 4/5/5 3/6/6
f 5/7/7 6/8/8 7/9/9
f 5/10/10 8/11/11 6/12/12
f 9/13/13 10/14/14 11/15/15
f 9/16/16 12/17/17 10/18/18
f 13/19/19 14/20/20 15/21/21
f 13/22/22 16/23/23 14/24/24
f 17/25/25 18/26/26 19/27/27
f 17/28/28 20/29/29 18/30/30
f 21/31/31 22/32/32 23/33/33
f 21/34/34 24/35/35 22/36/36
